<svg width="274" height="64" viewBox="0 0 274 64" fill="none" xmlns="http://www.w3.org/2000/svg">
<g clip-path="url(#clip0)">
<path d="M141.238 50.4156C141.905 50.4156 143.429 50.2242 144 50.0327C144.952 49.6499 145.238 48.8841 145.238 47.8312V25.6247C145.238 24.6675 144.952 23.7103 144 23.4232C143.333 23.2317 141.905 22.9446 141.238 22.9446V21.3174H154.476C158.381 21.3174 162.476 23.3275 162.476 28.4005C162.476 33.1864 159.429 34.9093 155.238 36.1537V36.6322C157.524 37.2066 160.286 38.8338 161.524 42.3753C162.19 44.194 162.857 46.8741 163.143 47.6398C163.809 49.7456 164.857 49.937 165.619 50.1285C166.381 50.2242 167.238 50.4156 168 50.4156V51.9471H159.429C158.857 48.7884 158.19 46.1083 157.238 43.1411C156.19 40.0781 153.714 37.398 150.952 37.398H149.333V47.8312C149.333 48.8841 149.619 49.6499 150.571 50.0327C151.048 50.2242 152.762 50.4156 153.524 50.4156V51.9471H141.238V50.4156ZM151.619 35.5793C155.048 35.5793 157.809 32.8992 157.809 28.7834C157.809 24.7632 155.429 23.0403 152.476 23.0403H149.429V35.5793H151.619Z" fill="black"/>
<path d="M166.476 41.7053C166.476 35.1965 170 30.6978 175.428 30.6978C180.762 30.6978 184.19 35.2922 184.19 41.3224C184.19 47.4484 181.047 52.5214 175.143 52.5214C170.571 52.5214 166.476 48.3098 166.476 41.7053ZM180.286 41.4182C180.286 36.8237 179.048 32.325 175.333 32.325C171.333 32.325 170.286 37.1109 170.286 41.3224C170.286 46.4912 171.714 50.8942 175.333 50.8942C178.857 50.8942 180.286 46.5869 180.286 41.4182Z" fill="black"/>
<path d="M185.809 52.7127C185.905 50.9898 186 47.7354 186 44.5767V26.9646C186 26.1032 185.619 24.8588 184.952 24.476C184.476 24.1888 183.143 23.9974 182.381 23.9017V22.4659L189.143 21.9873L189.428 22.3702V33.5692H189.524C190.381 32.4206 192.286 30.6976 194.762 30.6976C199.143 30.6976 202.571 35.0049 202.571 41.6095C202.571 47.8311 198.571 52.5213 194 52.5213C191.428 52.5213 189.428 51.277 188.286 50.5112L187.048 52.9999L185.809 52.7127ZM198.667 41.8009C198.667 37.4936 197.238 33.1863 193.428 33.1863C191.619 33.1863 190.381 34.2392 189.428 35.3878V47.0654C189.809 48.4054 191.048 50.7984 193.714 50.7984C196.571 50.7984 198.667 47.7354 198.667 41.8009Z" fill="black"/>
<path d="M204 41.7053C204 35.1965 207.524 30.6978 212.952 30.6978C218.286 30.6978 221.714 35.2922 221.714 41.3224C221.714 47.4484 218.571 52.5214 212.667 52.5214C208.095 52.5214 204 48.3098 204 41.7053ZM217.81 41.4182C217.81 36.8237 216.571 32.325 212.857 32.325C208.857 32.325 207.81 37.1109 207.81 41.3224C207.81 46.4912 209.238 50.8942 212.857 50.8942C216.381 50.8942 217.81 46.5869 217.81 41.4182Z" fill="black"/>
<path d="M224.667 46.3953V33.6648H221.048V31.6547H224.667V25.8159H228V31.6547H233.238V33.6648H228.095V45.7252C228.095 48.3096 228.667 49.7454 230.857 49.7454C232.476 49.7454 232.762 48.0225 232.857 46.3953H234.286C234.095 49.6497 232.476 52.4255 229.429 52.4255C226.19 52.4255 224.667 50.3197 224.667 46.3953Z" fill="black"/>
<path d="M235.429 50.607C236.095 50.607 236.571 50.5113 237.143 50.3198C237.81 50.0327 238.191 49.3626 238.191 48.4055V35.7707C238.095 34.8135 237.81 34.0478 237.143 33.5692C236.667 33.1863 235.524 32.8992 234.857 32.8992V31.5591L241.429 31.0805L241.619 31.3677V48.1183C241.619 49.0755 242 49.8412 242.667 50.1284C243.238 50.4155 243.714 50.607 244.381 50.607V51.947H235.524V50.607H235.429ZM237.238 24.5717C237.238 23.1359 238.286 21.8916 239.524 21.8916C240.952 21.8916 241.905 23.0402 241.905 24.3803C241.905 25.9118 240.857 27.1561 239.524 27.1561C238.286 27.1561 237.238 26.0075 237.238 24.5717Z" fill="black"/>
<path d="M243.905 41.5139C243.905 35.8665 247.238 30.6978 252.667 30.6978C256.762 30.6978 258.762 33.1864 258.762 35.8665C258.762 37.7809 258.095 38.8338 256.667 38.8338C255.905 38.8338 254.571 38.2595 254.571 36.6323C254.571 34.7179 255.048 34.7179 255.048 33.9522C254.857 32.7078 254 32.4207 252.571 32.4207C250.286 32.4207 247.714 34.6222 247.714 41.3224C247.714 46.2998 249.905 50.0328 253.333 50.0328C255.81 50.0328 257.143 48.6927 258.476 46.1083L259.81 47.1612C258.381 50.1285 255.619 52.4257 252.381 52.4257C246.857 52.5214 243.905 47.8313 243.905 41.5139Z" fill="black"/>
<path d="M262.762 50.7028L262.381 52.1386H261.047L260.857 44.6726H262.286C262.666 46.8741 264.666 50.7985 267.524 50.7985C270.19 50.7985 271.143 49.3627 271.143 47.3527C271.143 44.9597 269.714 44.0983 266.762 43.0454C264.286 42.1839 261.333 40.6524 261.333 36.728C261.333 33.3779 263.619 30.6978 267.238 30.6978C268.666 30.6978 270.286 31.1763 271.238 31.9421L271.524 30.6978H272.762L273.047 37.3023H271.619C271.238 34.7179 269.619 32.4207 267.143 32.4207C265.143 32.4207 264.095 33.665 264.095 35.1965C264.095 37.7809 265.333 38.3552 268.476 39.5038C271.619 40.6524 273.905 42.2796 273.905 46.0126C273.905 50.0328 270.952 52.5214 267.333 52.5214C265.524 52.5214 263.524 51.4685 262.762 50.7028Z" fill="black"/>
<path d="M3.61905 49.8413L2 52.2342H0.285714L0 40.078H1.14286C3.14286 45.6297 6.19048 50.8941 12.1905 50.8941C16.4762 50.8941 18.5714 48.214 18.5714 44.2896C18.5714 41.1309 16.9524 38.738 13.8095 37.3022C11.1429 36.1536 9.23809 35.3879 6.57143 34.1435C3.04762 32.5163 0.857143 29.5491 0.857143 24.9546C0.952381 19.4987 5.23809 15.3828 10.8571 15.3828C13.3333 15.3828 16.4762 16.4357 18.0952 17.8715L19.619 15.4785H21.3333L21.619 27.3475H20.4762C18.5714 21.5088 16.1905 16.9143 9.90476 16.9143C8.57143 16.9143 5.04762 18.1586 5.04762 22.2745C5.04762 25.4332 6.47619 27.2518 9.33333 28.9748C11.7143 30.4105 14.0952 30.9848 16.1905 32.0377C20.0952 34.0478 22.9524 36.1536 22.9524 41.5138C22.9524 47.9269 18.1905 52.4256 11.8095 52.4256C7.90476 52.4256 5.04762 51.0856 3.61905 49.8413Z" fill="#C72326"/>
<path d="M24.3809 39.791C24.3809 33.3779 28.4761 27.4434 34.9523 27.4434C39.8094 27.4434 42.2856 30.3149 42.2856 33.4736C42.2856 35.1965 41.3332 36.4408 39.619 36.4408C38.6666 36.4408 36.857 35.8665 36.857 33.8565C36.857 31.6549 37.4285 31.6549 37.4285 30.602C37.1428 29.0706 36.4761 28.6877 34.857 28.6877C32.0951 28.6877 29.4285 31.4635 29.4285 39.3124C29.4285 45.6298 31.7142 50.0328 35.7142 50.0328C38.857 50.0328 40.857 48.4056 42.3809 45.3426L43.4285 46.1083C41.7142 49.5542 38.3809 52.33 34.6666 52.33C27.7142 52.33 24.3809 47.0655 24.3809 39.791Z" fill="#C72326"/>
<path d="M46.0952 18.2544C46.0952 16.4358 47.5238 15 49.1428 15C51.0476 15 52.2857 16.4358 52.2857 18.063C52.2857 19.8816 50.9523 21.4131 49.1428 21.4131C47.5238 21.5088 46.0952 19.9773 46.0952 18.2544ZM43.9047 50.7028C44.7619 50.6071 45.4285 50.5113 46 50.3199C46.8571 50.0327 47.2381 48.9798 47.2381 47.927V32.995C47.1428 31.9421 46.7619 30.9849 46 30.4106C45.4285 30.0277 44 29.4534 43.1428 29.4534V28.4962L51.5238 27.9219L51.8095 28.3048V47.8312C51.8095 48.8841 52.2857 49.8413 53.0476 50.2242C53.8095 50.6071 54.5714 50.7985 55.1428 50.8942V51.9471H43.7143V50.7028H43.9047Z" fill="#C72326"/>
<path d="M69.0476 36.728C69.0476 32.995 68.2857 28.6877 65.0476 28.6877C62.2857 28.6877 60.1904 31.9421 60.0952 36.8237L69.0476 36.728ZM55.1428 39.6952C55.1428 33.3779 58.8571 27.4434 65.1428 27.4434C71.619 27.4434 74 32.1335 74 37.4937V37.9723H60.0952V38.5466C60.0952 45.2469 62 50.1285 66.8571 50.1285C70.3809 50.1285 71.619 48.6927 73.3333 45.4383L74.2857 46.1083C72.7619 49.7456 69.5238 52.33 65.619 52.33C58.4762 52.33 55.1428 46.5869 55.1428 39.6952Z" fill="#C72326"/>
<path d="M74.2857 50.7028C75.1429 50.6071 75.8095 50.5114 76.381 50.3199C77.2381 50.0328 77.6191 49.0756 77.6191 47.927V32.995C77.5238 31.9421 77.1429 30.7935 76.381 30.2192C75.9048 29.8363 74.8571 29.4534 74 29.3577V28.4005L81.9048 27.8262L82.2857 28.2091V31.7507H82.381C84.1905 29.8363 85.9048 27.4434 89.9048 27.4434C94.1905 27.4434 96.1905 30.6978 96.1905 35.6751V47.7356C96.1905 48.8842 96.5714 49.6499 97.3333 50.1285C98 50.4157 98.5714 50.6071 99.5238 50.7028V51.7557H88.0952V50.7028C88.8571 50.6071 89.7143 50.5114 90.2857 50.3199C91.1429 50.0328 91.5238 49.0756 91.5238 47.927V35.5794C91.5238 31.9421 89.8095 30.0277 87.8095 30.0277C84.5714 30.0277 82.7619 32.2293 82.2857 33.3779V47.6398C82.2857 48.7884 82.6667 49.5542 83.4286 50.0328C84 50.4156 84.8571 50.6071 85.6191 50.7028V51.7557H74.2857V50.7028Z" fill="#C72326"/>
<path d="M98.6667 39.791C98.6667 33.3779 102.762 27.4434 109.238 27.4434C114.095 27.4434 116.572 30.3149 116.572 33.4736C116.572 35.1965 115.619 36.4408 113.905 36.4408C112.952 36.4408 111.143 35.8665 111.143 33.8565C111.143 31.6549 111.714 31.6549 111.714 30.602C111.429 29.0706 110.762 28.6877 109.143 28.6877C106.381 28.6877 103.714 31.4635 103.714 39.3124C103.714 45.6298 106 50.0328 110 50.0328C113.143 50.0328 115.143 48.4056 116.667 45.3426L117.714 46.1083C116 49.5542 112.667 52.33 108.952 52.33C102.095 52.33 98.6667 47.0655 98.6667 39.791Z" fill="#C72326"/>
<path d="M131.714 36.728C131.714 32.995 130.952 28.6877 127.714 28.6877C124.952 28.6877 122.857 31.9421 122.762 36.8237L131.714 36.728ZM117.714 39.6952C117.714 33.3779 121.429 27.4434 127.714 27.4434C134.191 27.4434 136.571 32.1335 136.571 37.4937V37.9723H122.667V38.5466C122.667 45.2469 124.571 50.1285 129.429 50.1285C132.952 50.1285 134.191 48.6927 135.905 45.4383L136.857 46.1083C135.238 49.8413 132 52.4257 128.095 52.4257C121.143 52.33 117.714 46.5869 117.714 39.6952Z" fill="#C72326"/>
</g>
<defs>
<clipPath id="clip0">
<rect width="274" height="38" fill="white" transform="translate(0 15)"/>
</clipPath>
</defs>
</svg>
